{"accessors":[{"bufferView":0,"componentType":5126,"count":1584,"max":[250.0,29.00588607788086,250.0],"min":[-250.0,-13.23432731628418,-250.0],"normalized":false,"type":"VEC3"},{"bufferView":1,"componentType":5126,"count":1584,"max":[1.0,0.07883309572935104,1.0,1.0],"min":[-1.0,-0.07885664701461792,-1.0,1.0],"normalized":false,"type":"VEC4"},{"bufferView":2,"componentType":5126,"count":1584,"max":[1.0,1.0,1.0],"min":[-1.0,-1.0,-1.0],"normalized":false,"type":"VEC3"},{"bufferView":3,"componentType":5126,"count":1584,"max":[1.0,1.0],"min":[0.0,0.0],"normalized":false,"type":"VEC2"},{"bufferView":4,"componentType":5123,"count":1584,"max":[1583],"min":[0],"normalized":false,"type":"SCALAR"}],"asset":{"generator":"Godot Engine v4.6.stable.official@89cea143987d564363e15d207438530651d943ac","version":"2.0"},"bufferViews":[{"buffer":0,"byteLength":19008,"byteStride":12,"target":34962},{"buffer":0,"byteLength":25344,"byteOffset":19008,"byteStride":16,"target":34962},{"buffer":0,"byteLength":19008,"byteOffset":44352,"byteStride":12,"target":34962},{"buffer":0,"byteLength":12672,"byteOffset":63360,"byteStride":8,"target":34962},{"buffer":0,"byteLength":3168,"byteOffset":76032,"target":34963}],"buffers":[{"byteLength":79200,"uri":"demolevelmesh0.bin"}],"extensionsUsed":["GODOT_single_root"],"meshes":[{"primitives":[{"attributes":{"NORMAL":2,"POSITION":0,"TANGENT":1,"TEXCOORD_0":3},"indices":4,"mode":4}]}],"nodes":[{"mesh":0,"name":"CSGBakedMeshInstance3D"}],"scene":0,"scenes":[{"nodes":[0]}]}